<svg width="89" height="81" viewBox="0 0 89 81" fill="none" xmlns="http://www.w3.org/2000/svg">
<path d="M3 3H27.9C32.3026 3 36.5249 4.74892 39.638 7.86203C42.7511 10.9751 44.5 15.1974 44.5 19.6V77.7C44.5 74.398 43.1883 71.2313 40.8535 68.8965C38.5187 66.5617 35.3519 65.25 32.05 65.25H3V3Z" stroke="#8D5FE9" stroke-width="5" stroke-linecap="round" stroke-linejoin="round"/>
<path d="M86 3H61.1C56.6974 3 52.4751 4.74892 49.362 7.86203C46.2489 10.9751 44.5 15.1974 44.5 19.6V77.7C44.5 74.398 45.8117 71.2313 48.1465 68.8965C50.4813 66.5617 53.6481 65.25 56.95 65.25H86V3Z" stroke="#8D5FE9" stroke-width="5" stroke-linecap="round" stroke-linejoin="round"/>
</svg>
