<svg width="559" height="243" viewBox="0 0 559 243" fill="none" xmlns="http://www.w3.org/2000/svg">
<path d="M67.7635 233.488C67.3155 233.312 66.9715 233.056 66.7315 232.72C66.4915 232.384 66.3715 231.976 66.3715 231.496C66.3715 231.064 66.4795 230.676 66.6955 230.332C66.9115 229.98 67.2315 229.704 67.6555 229.504C68.0875 229.296 68.6075 229.192 69.2155 229.192C69.8235 229.192 70.3395 229.296 70.7635 229.504C71.1955 229.704 71.5195 229.98 71.7355 230.332C71.9595 230.676 72.0715 231.064 72.0715 231.496C72.0715 231.96 71.9475 232.368 71.6995 232.72C71.4515 233.064 71.1115 233.32 70.6795 233.488C71.1755 233.64 71.5675 233.908 71.8555 234.292C72.1515 234.668 72.2995 235.124 72.2995 235.66C72.2995 236.18 72.1715 236.636 71.9155 237.028C71.6595 237.412 71.2955 237.712 70.8235 237.928C70.3595 238.136 69.8235 238.24 69.2155 238.24C68.6075 238.24 68.0715 238.136 67.6075 237.928C67.1515 237.712 66.7955 237.412 66.5395 237.028C66.2835 236.636 66.1555 236.18 66.1555 235.66C66.1555 235.124 66.2995 234.664 66.5875 234.28C66.8755 233.896 67.2675 233.632 67.7635 233.488ZM71.0155 231.628C71.0155 231.14 70.8555 230.764 70.5355 230.5C70.2155 230.236 69.7755 230.104 69.2155 230.104C68.6635 230.104 68.2275 230.236 67.9075 230.5C67.5875 230.764 67.4275 231.144 67.4275 231.64C67.4275 232.088 67.5915 232.448 67.9195 232.72C68.2555 232.992 68.6875 233.128 69.2155 233.128C69.7515 233.128 70.1835 232.992 70.5115 232.72C70.8475 232.44 71.0155 232.076 71.0155 231.628ZM69.2155 233.968C68.6235 233.968 68.1395 234.108 67.7635 234.388C67.3875 234.66 67.1995 235.072 67.1995 235.624C67.1995 236.136 67.3795 236.548 67.7395 236.86C68.1075 237.172 68.5995 237.328 69.2155 237.328C69.8315 237.328 70.3195 237.172 70.6795 236.86C71.0395 236.548 71.2195 236.136 71.2195 235.624C71.2195 235.088 71.0355 234.68 70.6675 234.4C70.2995 234.112 69.8155 233.968 69.2155 233.968ZM73.6419 234.688C73.6419 234.016 73.7779 233.428 74.0499 232.924C74.3219 232.412 74.6939 232.016 75.1659 231.736C75.6459 231.456 76.1779 231.316 76.7619 231.316C77.3379 231.316 77.8379 231.44 78.2619 231.688C78.6859 231.936 79.0019 232.248 79.2099 232.624V231.424H80.3139V238H79.2099V236.776C78.9939 237.16 78.6699 237.48 78.2379 237.736C77.8139 237.984 77.3179 238.108 76.7499 238.108C76.1659 238.108 75.6379 237.964 75.1659 237.676C74.6939 237.388 74.3219 236.984 74.0499 236.464C73.7779 235.944 73.6419 235.352 73.6419 234.688ZM79.2099 234.7C79.2099 234.204 79.1099 233.772 78.9099 233.404C78.7099 233.036 78.4379 232.756 78.0939 232.564C77.7579 232.364 77.3859 232.264 76.9779 232.264C76.5699 232.264 76.1979 232.36 75.8619 232.552C75.5259 232.744 75.2579 233.024 75.0579 233.392C74.8579 233.76 74.7579 234.192 74.7579 234.688C74.7579 235.192 74.8579 235.632 75.0579 236.008C75.2579 236.376 75.5259 236.66 75.8619 236.86C76.1979 237.052 76.5699 237.148 76.9779 237.148C77.3859 237.148 77.7579 237.052 78.0939 236.86C78.4379 236.66 78.7099 236.376 78.9099 236.008C79.1099 235.632 79.2099 235.196 79.2099 234.7ZM90.1872 231.304C90.6992 231.304 91.1552 231.412 91.5552 231.628C91.9552 231.836 92.2712 232.152 92.5032 232.576C92.7352 233 92.8512 233.516 92.8512 234.124V238H91.7712V234.28C91.7712 233.624 91.6072 233.124 91.2792 232.78C90.9592 232.428 90.5232 232.252 89.9712 232.252C89.4032 232.252 88.9512 232.436 88.6152 232.804C88.2792 233.164 88.1112 233.688 88.1112 234.376V238H87.0312V234.28C87.0312 233.624 86.8672 233.124 86.5392 232.78C86.2192 232.428 85.7832 232.252 85.2312 232.252C84.6632 232.252 84.2112 232.436 83.8752 232.804C83.5392 233.164 83.3712 233.688 83.3712 234.376V238H82.2792V231.424H83.3712V232.372C83.5872 232.028 83.8752 231.764 84.2352 231.58C84.6032 231.396 85.0072 231.304 85.4472 231.304C85.9992 231.304 86.4872 231.428 86.9112 231.676C87.3352 231.924 87.6512 232.288 87.8592 232.768C88.0432 232.304 88.3472 231.944 88.7712 231.688C89.1952 231.432 89.6672 231.304 90.1872 231.304Z" fill="#4C5862"/>
<path d="M85.5 13H84.408L80.016 6.34V13H78.924V4.624H80.016L84.408 11.272V4.624H85.5V13ZM90.3495 13.108C89.7335 13.108 89.1735 12.968 88.6695 12.688C88.1735 12.408 87.7815 12.012 87.4935 11.5C87.2135 10.98 87.0735 10.38 87.0735 9.7C87.0735 9.028 87.2175 8.436 87.5055 7.924C87.8015 7.404 88.2015 7.008 88.7055 6.736C89.2095 6.456 89.7735 6.316 90.3975 6.316C91.0215 6.316 91.5855 6.456 92.0895 6.736C92.5935 7.008 92.9895 7.4 93.2775 7.912C93.5735 8.424 93.7215 9.02 93.7215 9.7C93.7215 10.38 93.5695 10.98 93.2655 11.5C92.9695 12.012 92.5655 12.408 92.0535 12.688C91.5415 12.968 90.9735 13.108 90.3495 13.108ZM90.3495 12.148C90.7415 12.148 91.1095 12.056 91.4535 11.872C91.7975 11.688 92.0735 11.412 92.2815 11.044C92.4975 10.676 92.6055 10.228 92.6055 9.7C92.6055 9.172 92.5015 8.724 92.2935 8.356C92.0855 7.988 91.8135 7.716 91.4775 7.54C91.1415 7.356 90.7775 7.264 90.3855 7.264C89.9855 7.264 89.6175 7.356 89.2815 7.54C88.9535 7.716 88.6895 7.988 88.4895 8.356C88.2895 8.724 88.1895 9.172 88.1895 9.7C88.1895 10.236 88.2855 10.688 88.4775 11.056C88.6775 11.424 88.9415 11.7 89.2695 11.884C89.5975 12.06 89.9575 12.148 90.3495 12.148ZM95.8413 5.356C95.6333 5.356 95.4573 5.284 95.3133 5.14C95.1693 4.996 95.0973 4.82 95.0973 4.612C95.0973 4.404 95.1693 4.228 95.3133 4.084C95.4573 3.94 95.6333 3.868 95.8413 3.868C96.0413 3.868 96.2093 3.94 96.3453 4.084C96.4893 4.228 96.5613 4.404 96.5613 4.612C96.5613 4.82 96.4893 4.996 96.3453 5.14C96.2093 5.284 96.0413 5.356 95.8413 5.356ZM96.3693 6.424V13H95.2773V6.424H96.3693ZM100.678 13.108C100.174 13.108 99.7224 13.024 99.3224 12.856C98.9224 12.68 98.6064 12.44 98.3744 12.136C98.1424 11.824 98.0144 11.468 97.9904 11.068H99.1184C99.1504 11.396 99.3024 11.664 99.5744 11.872C99.8544 12.08 100.218 12.184 100.666 12.184C101.082 12.184 101.41 12.092 101.65 11.908C101.89 11.724 102.01 11.492 102.01 11.212C102.01 10.924 101.882 10.712 101.626 10.576C101.37 10.432 100.974 10.292 100.438 10.156C99.9504 10.028 99.5504 9.9 99.2384 9.772C98.9344 9.636 98.6704 9.44 98.4464 9.184C98.2304 8.92 98.1224 8.576 98.1224 8.152C98.1224 7.816 98.2224 7.508 98.4224 7.228C98.6224 6.948 98.9064 6.728 99.2744 6.568C99.6424 6.4 100.062 6.316 100.534 6.316C101.262 6.316 101.85 6.5 102.298 6.868C102.746 7.236 102.986 7.74 103.018 8.38H101.926C101.902 8.036 101.762 7.76 101.506 7.552C101.258 7.344 100.922 7.24 100.498 7.24C100.106 7.24 99.7944 7.324 99.5624 7.492C99.3304 7.66 99.2144 7.88 99.2144 8.152C99.2144 8.368 99.2824 8.548 99.4184 8.692C99.5624 8.828 99.7384 8.94 99.9464 9.028C100.162 9.108 100.458 9.2 100.834 9.304C101.306 9.432 101.69 9.56 101.986 9.688C102.282 9.808 102.534 9.992 102.742 10.24C102.958 10.488 103.07 10.812 103.078 11.212C103.078 11.572 102.978 11.896 102.778 12.184C102.578 12.472 102.294 12.7 101.926 12.868C101.566 13.028 101.15 13.108 100.678 13.108ZM110.74 9.46C110.74 9.668 110.728 9.888 110.704 10.12H105.448C105.488 10.768 105.708 11.276 106.108 11.644C106.516 12.004 107.008 12.184 107.584 12.184C108.056 12.184 108.448 12.076 108.76 11.86C109.08 11.636 109.304 11.34 109.432 10.972H110.608C110.432 11.604 110.08 12.12 109.552 12.52C109.024 12.912 108.368 13.108 107.584 13.108C106.96 13.108 106.4 12.968 105.904 12.688C105.416 12.408 105.032 12.012 104.752 11.5C104.472 10.98 104.332 10.38 104.332 9.7C104.332 9.02 104.468 8.424 104.74 7.912C105.012 7.4 105.392 7.008 105.88 6.736C106.376 6.456 106.944 6.316 107.584 6.316C108.208 6.316 108.76 6.452 109.24 6.724C109.72 6.996 110.088 7.372 110.344 7.852C110.608 8.324 110.74 8.86 110.74 9.46ZM109.612 9.232C109.612 8.816 109.52 8.46 109.336 8.164C109.152 7.86 108.9 7.632 108.58 7.48C108.268 7.32 107.92 7.24 107.536 7.24C106.984 7.24 106.512 7.416 106.12 7.768C105.736 8.12 105.516 8.608 105.46 9.232H109.612Z" fill="#4C5862"/>
<path d="M189.016 5.524V8.32H192.064V9.22H189.016V12.1H192.424V13H187.924V4.624H192.424V5.524H189.016ZM196.872 7.324H195.492V13H194.4V7.324H193.548V6.424H194.4V5.956C194.4 5.22 194.588 4.684 194.964 4.348C195.348 4.004 195.96 3.832 196.8 3.832V4.744C196.32 4.744 195.98 4.84 195.78 5.032C195.588 5.216 195.492 5.524 195.492 5.956V6.424H196.872V7.324ZM200.942 7.324H199.562V13H198.47V7.324H197.618V6.424H198.47V5.956C198.47 5.22 198.658 4.684 199.034 4.348C199.418 4.004 200.03 3.832 200.87 3.832V4.744C200.39 4.744 200.05 4.84 199.85 5.032C199.658 5.216 199.562 5.524 199.562 5.956V6.424H200.942V7.324ZM202.899 5.356C202.691 5.356 202.515 5.284 202.371 5.14C202.227 4.996 202.155 4.82 202.155 4.612C202.155 4.404 202.227 4.228 202.371 4.084C202.515 3.94 202.691 3.868 202.899 3.868C203.099 3.868 203.267 3.94 203.403 4.084C203.547 4.228 203.619 4.404 203.619 4.612C203.619 4.82 203.547 4.996 203.403 5.14C203.267 5.284 203.099 5.356 202.899 5.356ZM203.427 6.424V13H202.335V6.424H203.427ZM205 9.7C205 9.02 205.136 8.428 205.408 7.924C205.68 7.412 206.056 7.016 206.536 6.736C207.024 6.456 207.58 6.316 208.204 6.316C209.012 6.316 209.676 6.512 210.196 6.904C210.724 7.296 211.072 7.84 211.24 8.536H210.064C209.952 8.136 209.732 7.82 209.404 7.588C209.084 7.356 208.684 7.24 208.204 7.24C207.58 7.24 207.076 7.456 206.692 7.888C206.308 8.312 206.116 8.916 206.116 9.7C206.116 10.492 206.308 11.104 206.692 11.536C207.076 11.968 207.58 12.184 208.204 12.184C208.684 12.184 209.084 12.072 209.404 11.848C209.724 11.624 209.944 11.304 210.064 10.888H211.24C211.064 11.56 210.712 12.1 210.184 12.508C209.656 12.908 208.996 13.108 208.204 13.108C207.58 13.108 207.024 12.968 206.536 12.688C206.056 12.408 205.68 12.012 205.408 11.5C205.136 10.988 205 10.388 205 9.7ZM213.381 5.356C213.173 5.356 212.997 5.284 212.853 5.14C212.709 4.996 212.637 4.82 212.637 4.612C212.637 4.404 212.709 4.228 212.853 4.084C212.997 3.94 213.173 3.868 213.381 3.868C213.581 3.868 213.749 3.94 213.885 4.084C214.029 4.228 214.101 4.404 214.101 4.612C214.101 4.82 214.029 4.996 213.885 5.14C213.749 5.284 213.581 5.356 213.381 5.356ZM213.909 6.424V13H212.817V6.424H213.909ZM221.89 9.46C221.89 9.668 221.878 9.888 221.854 10.12H216.598C216.638 10.768 216.858 11.276 217.258 11.644C217.666 12.004 218.158 12.184 218.734 12.184C219.206 12.184 219.598 12.076 219.91 11.86C220.23 11.636 220.454 11.34 220.582 10.972H221.758C221.582 11.604 221.23 12.12 220.702 12.52C220.174 12.912 219.518 13.108 218.734 13.108C218.11 13.108 217.55 12.968 217.054 12.688C216.566 12.408 216.182 12.012 215.902 11.5C215.622 10.98 215.482 10.38 215.482 9.7C215.482 9.02 215.618 8.424 215.89 7.912C216.162 7.4 216.542 7.008 217.03 6.736C217.526 6.456 218.094 6.316 218.734 6.316C219.358 6.316 219.91 6.452 220.39 6.724C220.87 6.996 221.238 7.372 221.494 7.852C221.758 8.324 221.89 8.86 221.89 9.46ZM220.762 9.232C220.762 8.816 220.67 8.46 220.486 8.164C220.302 7.86 220.05 7.632 219.73 7.48C219.418 7.32 219.07 7.24 218.686 7.24C218.134 7.24 217.662 7.416 217.27 7.768C216.886 8.12 216.666 8.608 216.61 9.232H220.762ZM226.656 6.304C227.456 6.304 228.104 6.548 228.6 7.036C229.096 7.516 229.344 8.212 229.344 9.124V13H228.264V9.28C228.264 8.624 228.1 8.124 227.772 7.78C227.444 7.428 226.996 7.252 226.428 7.252C225.852 7.252 225.392 7.432 225.048 7.792C224.712 8.152 224.544 8.676 224.544 9.364V13H223.452V6.424H224.544V7.36C224.76 7.024 225.052 6.764 225.42 6.58C225.796 6.396 226.208 6.304 226.656 6.304ZM230.839 9.7C230.839 9.02 230.975 8.428 231.247 7.924C231.519 7.412 231.895 7.016 232.375 6.736C232.863 6.456 233.419 6.316 234.043 6.316C234.851 6.316 235.515 6.512 236.035 6.904C236.563 7.296 236.911 7.84 237.079 8.536H235.903C235.791 8.136 235.571 7.82 235.243 7.588C234.923 7.356 234.523 7.24 234.043 7.24C233.419 7.24 232.915 7.456 232.531 7.888C232.147 8.312 231.955 8.916 231.955 9.7C231.955 10.492 232.147 11.104 232.531 11.536C232.915 11.968 233.419 12.184 234.043 12.184C234.523 12.184 234.923 12.072 235.243 11.848C235.563 11.624 235.783 11.304 235.903 10.888H237.079C236.903 11.56 236.551 12.1 236.023 12.508C235.495 12.908 234.835 13.108 234.043 13.108C233.419 13.108 232.863 12.968 232.375 12.688C231.895 12.408 231.519 12.012 231.247 11.5C230.975 10.988 230.839 10.388 230.839 9.7ZM244.32 6.424L240.36 16.096H239.232L240.528 12.928L237.876 6.424H239.088L241.152 11.752L243.192 6.424H244.32Z" fill="#4C5862"/>
<path d="M0.744 210.752C0.744 209.376 0.968 208.304 1.416 207.536C1.864 206.76 2.648 206.372 3.768 206.372C4.88 206.372 5.66 206.76 6.108 207.536C6.556 208.304 6.78 209.376 6.78 210.752C6.78 212.152 6.556 213.24 6.108 214.016C5.66 214.792 4.88 215.18 3.768 215.18C2.648 215.18 1.864 214.792 1.416 214.016C0.968 213.24 0.744 212.152 0.744 210.752ZM5.7 210.752C5.7 210.056 5.652 209.468 5.556 208.988C5.468 208.5 5.28 208.108 4.992 207.812C4.712 207.516 4.304 207.368 3.768 207.368C3.224 207.368 2.808 207.516 2.52 207.812C2.24 208.108 2.052 208.5 1.956 208.988C1.868 209.468 1.824 210.056 1.824 210.752C1.824 211.472 1.868 212.076 1.956 212.564C2.052 213.052 2.24 213.444 2.52 213.74C2.808 214.036 3.224 214.184 3.768 214.184C4.304 214.184 4.712 214.036 4.992 213.74C5.28 213.444 5.468 213.052 5.556 212.564C5.652 212.076 5.7 211.472 5.7 210.752Z" fill="#4C5862"/>
<path d="M0.612 175.259C1.628 174.443 2.424 173.775 3 173.255C3.576 172.727 4.06 172.179 4.452 171.611C4.852 171.035 5.052 170.471 5.052 169.919C5.052 169.399 4.924 168.991 4.668 168.695C4.42 168.391 4.016 168.239 3.456 168.239C2.912 168.239 2.488 168.411 2.184 168.755C1.888 169.091 1.728 169.543 1.704 170.111H0.648C0.68 169.215 0.952 168.523 1.464 168.035C1.976 167.547 2.636 167.303 3.444 167.303C4.268 167.303 4.92 167.531 5.4 167.987C5.888 168.443 6.132 169.071 6.132 169.871C6.132 170.535 5.932 171.183 5.532 171.815C5.14 172.439 4.692 172.991 4.188 173.471C3.684 173.943 3.04 174.495 2.256 175.127H6.384V176.039H0.612V175.259ZM13.2983 168.407H9.08634V171.143C9.27034 170.887 9.54234 170.679 9.90234 170.519C10.2623 170.351 10.6503 170.267 11.0663 170.267C11.7303 170.267 12.2703 170.407 12.6863 170.687C13.1023 170.959 13.3983 171.315 13.5743 171.755C13.7583 172.187 13.8503 172.647 13.8503 173.135C13.8503 173.711 13.7423 174.227 13.5263 174.683C13.3103 175.139 12.9783 175.499 12.5303 175.763C12.0903 176.027 11.5423 176.159 10.8863 176.159C10.0463 176.159 9.36634 175.943 8.84634 175.511C8.32634 175.079 8.01034 174.503 7.89834 173.783H8.96634C9.07034 174.239 9.29034 174.595 9.62634 174.851C9.96234 175.107 10.3863 175.235 10.8983 175.235C11.5303 175.235 12.0063 175.047 12.3263 174.671C12.6463 174.287 12.8063 173.783 12.8063 173.159C12.8063 172.535 12.6463 172.055 12.3263 171.719C12.0063 171.375 11.5343 171.203 10.9103 171.203C10.4863 171.203 10.1143 171.307 9.79434 171.515C9.48234 171.715 9.25434 171.991 9.11034 172.343H8.07834V167.447H13.2983V168.407ZM15.1815 169.415C15.1815 168.871 15.3455 168.439 15.6735 168.119C16.0015 167.791 16.4215 167.627 16.9335 167.627C17.4455 167.627 17.8655 167.791 18.1935 168.119C18.5215 168.439 18.6855 168.871 18.6855 169.415C18.6855 169.967 18.5215 170.407 18.1935 170.735C17.8655 171.055 17.4455 171.215 16.9335 171.215C16.4215 171.215 16.0015 171.055 15.6735 170.735C15.3455 170.407 15.1815 169.967 15.1815 169.415ZM22.1895 167.759L17.3295 176.135H16.2495L21.1095 167.759H22.1895ZM16.9335 168.299C16.6615 168.299 16.4455 168.395 16.2855 168.587C16.1335 168.771 16.0575 169.047 16.0575 169.415C16.0575 169.783 16.1335 170.063 16.2855 170.255C16.4455 170.447 16.6615 170.543 16.9335 170.543C17.2055 170.543 17.4215 170.447 17.5815 170.255C17.7415 170.055 17.8215 169.775 17.8215 169.415C17.8215 169.047 17.7415 168.771 17.5815 168.587C17.4215 168.395 17.2055 168.299 16.9335 168.299ZM19.7775 174.479C19.7775 173.927 19.9415 173.491 20.2695 173.171C20.5975 172.843 21.0175 172.679 21.5295 172.679C22.0415 172.679 22.4575 172.843 22.7775 173.171C23.1055 173.491 23.2695 173.927 23.2695 174.479C23.2695 175.023 23.1055 175.459 22.7775 175.787C22.4575 176.115 22.0415 176.279 21.5295 176.279C21.0175 176.279 20.5975 176.119 20.2695 175.799C19.9415 175.471 19.7775 175.031 19.7775 174.479ZM21.5175 173.363C21.2455 173.363 21.0295 173.459 20.8695 173.651C20.7095 173.835 20.6295 174.111 20.6295 174.479C20.6295 174.839 20.7095 175.115 20.8695 175.307C21.0295 175.491 21.2455 175.583 21.5175 175.583C21.7895 175.583 22.0055 175.491 22.1655 175.307C22.3255 175.115 22.4055 174.839 22.4055 174.479C22.4055 174.111 22.3255 173.835 22.1655 173.651C22.0055 173.459 21.7895 173.363 21.5175 173.363Z" fill="#4C5862"/>
<path d="M6.276 129.362H2.064V132.098C2.248 131.842 2.52 131.634 2.88 131.474C3.24 131.306 3.628 131.222 4.044 131.222C4.708 131.222 5.248 131.362 5.664 131.642C6.08 131.914 6.376 132.27 6.552 132.71C6.736 133.142 6.828 133.602 6.828 134.09C6.828 134.666 6.72 135.182 6.504 135.638C6.288 136.094 5.956 136.454 5.508 136.718C5.068 136.982 4.52 137.114 3.864 137.114C3.024 137.114 2.344 136.898 1.824 136.466C1.304 136.034 0.988 135.458 0.876 134.738H1.944C2.048 135.194 2.268 135.55 2.604 135.806C2.94 136.062 3.364 136.19 3.876 136.19C4.508 136.19 4.984 136.002 5.304 135.626C5.624 135.242 5.784 134.738 5.784 134.114C5.784 133.49 5.624 133.01 5.304 132.674C4.984 132.33 4.512 132.158 3.888 132.158C3.464 132.158 3.092 132.262 2.772 132.47C2.46 132.67 2.232 132.946 2.088 133.298H1.056V128.402H6.276V129.362ZM8.39916 132.662C8.39916 131.286 8.62316 130.214 9.07116 129.446C9.51916 128.67 10.3032 128.282 11.4232 128.282C12.5352 128.282 13.3152 128.67 13.7632 129.446C14.2112 130.214 14.4352 131.286 14.4352 132.662C14.4352 134.062 14.2112 135.15 13.7632 135.926C13.3152 136.702 12.5352 137.09 11.4232 137.09C10.3032 137.09 9.51916 136.702 9.07116 135.926C8.62316 135.15 8.39916 134.062 8.39916 132.662ZM13.3552 132.662C13.3552 131.966 13.3072 131.378 13.2112 130.898C13.1232 130.41 12.9352 130.018 12.6472 129.722C12.3672 129.426 11.9592 129.278 11.4232 129.278C10.8792 129.278 10.4632 129.426 10.1752 129.722C9.89516 130.018 9.70716 130.41 9.61116 130.898C9.52316 131.378 9.47916 131.966 9.47916 132.662C9.47916 133.382 9.52316 133.986 9.61116 134.474C9.70716 134.962 9.89516 135.354 10.1752 135.65C10.4632 135.946 10.8792 136.094 11.4232 136.094C11.9592 136.094 12.3672 135.946 12.6472 135.65C12.9352 135.354 13.1232 134.962 13.2112 134.474C13.3072 133.986 13.3552 133.382 13.3552 132.662ZM15.8143 130.37C15.8143 129.826 15.9783 129.394 16.3063 129.074C16.6343 128.746 17.0543 128.582 17.5663 128.582C18.0783 128.582 18.4983 128.746 18.8263 129.074C19.1543 129.394 19.3183 129.826 19.3183 130.37C19.3183 130.922 19.1543 131.362 18.8263 131.69C18.4983 132.01 18.0783 132.17 17.5663 132.17C17.0543 132.17 16.6343 132.01 16.3063 131.69C15.9783 131.362 15.8143 130.922 15.8143 130.37ZM22.8223 128.714L17.9623 137.09H16.8823L21.7423 128.714H22.8223ZM17.5663 129.254C17.2943 129.254 17.0783 129.35 16.9183 129.542C16.7663 129.726 16.6903 130.002 16.6903 130.37C16.6903 130.738 16.7663 131.018 16.9183 131.21C17.0783 131.402 17.2943 131.498 17.5663 131.498C17.8383 131.498 18.0543 131.402 18.2143 131.21C18.3743 131.01 18.4543 130.73 18.4543 130.37C18.4543 130.002 18.3743 129.726 18.2143 129.542C18.0543 129.35 17.8383 129.254 17.5663 129.254ZM20.4103 135.434C20.4103 134.882 20.5743 134.446 20.9023 134.126C21.2303 133.798 21.6503 133.634 22.1623 133.634C22.6743 133.634 23.0903 133.798 23.4103 134.126C23.7383 134.446 23.9023 134.882 23.9023 135.434C23.9023 135.978 23.7383 136.414 23.4103 136.742C23.0903 137.07 22.6743 137.234 22.1623 137.234C21.6503 137.234 21.2303 137.074 20.9023 136.754C20.5743 136.426 20.4103 135.986 20.4103 135.434ZM22.1503 134.318C21.8783 134.318 21.6623 134.414 21.5023 134.606C21.3423 134.79 21.2623 135.066 21.2623 135.434C21.2623 135.794 21.3423 136.07 21.5023 136.262C21.6623 136.446 21.8783 136.538 22.1503 136.538C22.4223 136.538 22.6383 136.446 22.7983 136.262C22.9583 136.07 23.0383 135.794 23.0383 135.434C23.0383 135.066 22.9583 134.79 22.7983 134.606C22.6383 134.414 22.4223 134.318 22.1503 134.318Z" fill="#4C5862"/>
<path d="M6.084 90.2209L2.748 98.0449H1.644L5.028 90.3289H0.396V89.3929H6.084V90.2209ZM12.9468 90.3169H8.73478V93.0529C8.91878 92.7969 9.19078 92.5889 9.55078 92.4289C9.91078 92.2609 10.2988 92.1769 10.7148 92.1769C11.3788 92.1769 11.9188 92.3169 12.3348 92.5969C12.7508 92.8689 13.0468 93.2249 13.2228 93.6649C13.4068 94.0969 13.4988 94.5569 13.4988 95.0449C13.4988 95.6209 13.3908 96.1369 13.1748 96.5929C12.9588 97.0489 12.6268 97.4089 12.1788 97.6729C11.7388 97.9369 11.1908 98.0689 10.5348 98.0689C9.69478 98.0689 9.01478 97.8529 8.49478 97.4209C7.97478 96.9889 7.65878 96.4129 7.54678 95.6929H8.61478C8.71878 96.1489 8.93878 96.5049 9.27478 96.7609C9.61078 97.0169 10.0348 97.1449 10.5468 97.1449C11.1788 97.1449 11.6548 96.9569 11.9748 96.5809C12.2948 96.1969 12.4548 95.6929 12.4548 95.0689C12.4548 94.4449 12.2948 93.9649 11.9748 93.6289C11.6548 93.2849 11.1828 93.1129 10.5588 93.1129C10.1348 93.1129 9.76278 93.2169 9.44278 93.4249C9.13078 93.6249 8.90278 93.9009 8.75878 94.2529H7.72678V89.3569H12.9468V90.3169ZM14.8299 91.3249C14.8299 90.7809 14.9939 90.3489 15.3219 90.0289C15.6499 89.7009 16.0699 89.5369 16.5819 89.5369C17.0939 89.5369 17.5139 89.7009 17.8419 90.0289C18.1699 90.3489 18.3339 90.7809 18.3339 91.3249C18.3339 91.8769 18.1699 92.3169 17.8419 92.6449C17.5139 92.9649 17.0939 93.1249 16.5819 93.1249C16.0699 93.1249 15.6499 92.9649 15.3219 92.6449C14.9939 92.3169 14.8299 91.8769 14.8299 91.3249ZM21.8379 89.6689L16.9779 98.0449H15.8979L20.7579 89.6689H21.8379ZM16.5819 90.2089C16.3099 90.2089 16.0939 90.3049 15.9339 90.4969C15.7819 90.6809 15.7059 90.9569 15.7059 91.3249C15.7059 91.6929 15.7819 91.9729 15.9339 92.1649C16.0939 92.3569 16.3099 92.4529 16.5819 92.4529C16.8539 92.4529 17.0699 92.3569 17.2299 92.1649C17.3899 91.9649 17.4699 91.6849 17.4699 91.3249C17.4699 90.9569 17.3899 90.6809 17.2299 90.4969C17.0699 90.3049 16.8539 90.2089 16.5819 90.2089ZM19.4259 96.3889C19.4259 95.8369 19.5899 95.4009 19.9179 95.0809C20.2459 94.7529 20.6659 94.5889 21.1779 94.5889C21.6899 94.5889 22.1059 94.7529 22.4259 95.0809C22.7539 95.4009 22.9179 95.8369 22.9179 96.3889C22.9179 96.9329 22.7539 97.3689 22.4259 97.6969C22.1059 98.0249 21.6899 98.1889 21.1779 98.1889C20.6659 98.1889 20.2459 98.0289 19.9179 97.7089C19.5899 97.3809 19.4259 96.9409 19.4259 96.3889ZM21.1659 95.2729C20.8939 95.2729 20.6779 95.3689 20.5179 95.5609C20.3579 95.7449 20.2779 96.0209 20.2779 96.3889C20.2779 96.7489 20.3579 97.0249 20.5179 97.2169C20.6779 97.4009 20.8939 97.4929 21.1659 97.4929C21.4379 97.4929 21.6539 97.4009 21.8139 97.2169C21.9739 97.0249 22.0539 96.7489 22.0539 96.3889C22.0539 96.0209 21.9739 95.7449 21.8139 95.5609C21.6539 95.3689 21.4379 95.2729 21.1659 95.2729Z" fill="#4C5862"/>
<path d="M0.456 51.32V50.324H2.712V59H1.608V51.32H0.456ZM4.70775 54.572C4.70775 53.196 4.93175 52.124 5.37975 51.356C5.82775 50.58 6.61175 50.192 7.73175 50.192C8.84375 50.192 9.62375 50.58 10.0717 51.356C10.5197 52.124 10.7437 53.196 10.7437 54.572C10.7437 55.972 10.5197 57.06 10.0717 57.836C9.62375 58.612 8.84375 59 7.73175 59C6.61175 59 5.82775 58.612 5.37975 57.836C4.93175 57.06 4.70775 55.972 4.70775 54.572ZM9.66375 54.572C9.66375 53.876 9.61575 53.288 9.51975 52.808C9.43175 52.32 9.24375 51.928 8.95575 51.632C8.67575 51.336 8.26775 51.188 7.73175 51.188C7.18775 51.188 6.77175 51.336 6.48375 51.632C6.20375 51.928 6.01575 52.32 5.91975 52.808C5.83175 53.288 5.78775 53.876 5.78775 54.572C5.78775 55.292 5.83175 55.896 5.91975 56.384C6.01575 56.872 6.20375 57.264 6.48375 57.56C6.77175 57.856 7.18775 58.004 7.73175 58.004C8.26775 58.004 8.67575 57.856 8.95575 57.56C9.24375 57.264 9.43175 56.872 9.51975 56.384C9.61575 55.896 9.66375 55.292 9.66375 54.572ZM12.3629 54.572C12.3629 53.196 12.5869 52.124 13.0349 51.356C13.4829 50.58 14.2669 50.192 15.3869 50.192C16.4989 50.192 17.2789 50.58 17.7269 51.356C18.1749 52.124 18.3989 53.196 18.3989 54.572C18.3989 55.972 18.1749 57.06 17.7269 57.836C17.2789 58.612 16.4989 59 15.3869 59C14.2669 59 13.4829 58.612 13.0349 57.836C12.5869 57.06 12.3629 55.972 12.3629 54.572ZM17.3189 54.572C17.3189 53.876 17.2709 53.288 17.1749 52.808C17.0869 52.32 16.8989 51.928 16.6109 51.632C16.3309 51.336 15.9229 51.188 15.3869 51.188C14.8429 51.188 14.4269 51.336 14.1389 51.632C13.8589 51.928 13.6709 52.32 13.5749 52.808C13.4869 53.288 13.4429 53.876 13.4429 54.572C13.4429 55.292 13.4869 55.896 13.5749 56.384C13.6709 56.872 13.8589 57.264 14.1389 57.56C14.4269 57.856 14.8429 58.004 15.3869 58.004C15.9229 58.004 16.3309 57.856 16.6109 57.56C16.8989 57.264 17.0869 56.872 17.1749 56.384C17.2709 55.896 17.3189 55.292 17.3189 54.572ZM19.7781 52.28C19.7781 51.736 19.9421 51.304 20.2701 50.984C20.5981 50.656 21.0181 50.492 21.5301 50.492C22.0421 50.492 22.4621 50.656 22.7901 50.984C23.1181 51.304 23.2821 51.736 23.2821 52.28C23.2821 52.832 23.1181 53.272 22.7901 53.6C22.4621 53.92 22.0421 54.08 21.5301 54.08C21.0181 54.08 20.5981 53.92 20.2701 53.6C19.9421 53.272 19.7781 52.832 19.7781 52.28ZM26.7861 50.624L21.9261 59H20.8461L25.7061 50.624H26.7861ZM21.5301 51.164C21.2581 51.164 21.0421 51.26 20.8821 51.452C20.7301 51.636 20.6541 51.912 20.6541 52.28C20.6541 52.648 20.7301 52.928 20.8821 53.12C21.0421 53.312 21.2581 53.408 21.5301 53.408C21.8021 53.408 22.0181 53.312 22.1781 53.12C22.3381 52.92 22.4181 52.64 22.4181 52.28C22.4181 51.912 22.3381 51.636 22.1781 51.452C22.0181 51.26 21.8021 51.164 21.5301 51.164ZM24.3741 57.344C24.3741 56.792 24.5381 56.356 24.8661 56.036C25.1941 55.708 25.6141 55.544 26.1261 55.544C26.6381 55.544 27.0541 55.708 27.3741 56.036C27.7021 56.356 27.8661 56.792 27.8661 57.344C27.8661 57.888 27.7021 58.324 27.3741 58.652C27.0541 58.98 26.6381 59.144 26.1261 59.144C25.6141 59.144 25.1941 58.984 24.8661 58.664C24.5381 58.336 24.3741 57.896 24.3741 57.344ZM26.1141 56.228C25.8421 56.228 25.6261 56.324 25.4661 56.516C25.3061 56.7 25.2261 56.976 25.2261 57.344C25.2261 57.704 25.3061 57.98 25.4661 58.172C25.6261 58.356 25.8421 58.448 26.1141 58.448C26.3861 58.448 26.6021 58.356 26.7621 58.172C26.9221 57.98 27.0021 57.704 27.0021 57.344C27.0021 56.976 26.9221 56.7 26.7621 56.516C26.6021 56.324 26.3861 56.228 26.1141 56.228Z" fill="#4C5862"/>
<path d="M517.744 210.752C517.744 209.376 517.968 208.304 518.416 207.536C518.864 206.76 519.648 206.372 520.768 206.372C521.88 206.372 522.66 206.76 523.108 207.536C523.556 208.304 523.78 209.376 523.78 210.752C523.78 212.152 523.556 213.24 523.108 214.016C522.66 214.792 521.88 215.18 520.768 215.18C519.648 215.18 518.864 214.792 518.416 214.016C517.968 213.24 517.744 212.152 517.744 210.752ZM522.7 210.752C522.7 210.056 522.652 209.468 522.556 208.988C522.468 208.5 522.28 208.108 521.992 207.812C521.712 207.516 521.304 207.368 520.768 207.368C520.224 207.368 519.808 207.516 519.52 207.812C519.24 208.108 519.052 208.5 518.956 208.988C518.868 209.468 518.824 210.056 518.824 210.752C518.824 211.472 518.868 212.076 518.956 212.564C519.052 213.052 519.24 213.444 519.52 213.74C519.808 214.036 520.224 214.184 520.768 214.184C521.304 214.184 521.712 214.036 521.992 213.74C522.28 213.444 522.468 213.052 522.556 212.564C522.652 212.076 522.7 211.472 522.7 210.752Z" fill="#4C5862"/>
<path d="M523.276 168.272H519.064V171.008C519.248 170.752 519.52 170.544 519.88 170.384C520.24 170.216 520.628 170.132 521.044 170.132C521.708 170.132 522.248 170.272 522.664 170.552C523.08 170.824 523.376 171.18 523.552 171.62C523.736 172.052 523.828 172.512 523.828 173C523.828 173.576 523.72 174.092 523.504 174.548C523.288 175.004 522.956 175.364 522.508 175.628C522.068 175.892 521.52 176.024 520.864 176.024C520.024 176.024 519.344 175.808 518.824 175.376C518.304 174.944 517.988 174.368 517.876 173.648H518.944C519.048 174.104 519.268 174.46 519.604 174.716C519.94 174.972 520.364 175.1 520.876 175.1C521.508 175.1 521.984 174.912 522.304 174.536C522.624 174.152 522.784 173.648 522.784 173.024C522.784 172.4 522.624 171.92 522.304 171.584C521.984 171.24 521.512 171.068 520.888 171.068C520.464 171.068 520.092 171.172 519.772 171.38C519.46 171.58 519.232 171.856 519.088 172.208H518.056V167.312H523.276V168.272ZM525.399 171.572C525.399 170.196 525.623 169.124 526.071 168.356C526.519 167.58 527.303 167.192 528.423 167.192C529.535 167.192 530.315 167.58 530.763 168.356C531.211 169.124 531.435 170.196 531.435 171.572C531.435 172.972 531.211 174.06 530.763 174.836C530.315 175.612 529.535 176 528.423 176C527.303 176 526.519 175.612 526.071 174.836C525.623 174.06 525.399 172.972 525.399 171.572ZM530.355 171.572C530.355 170.876 530.307 170.288 530.211 169.808C530.123 169.32 529.935 168.928 529.647 168.632C529.367 168.336 528.959 168.188 528.423 168.188C527.879 168.188 527.463 168.336 527.175 168.632C526.895 168.928 526.707 169.32 526.611 169.808C526.523 170.288 526.479 170.876 526.479 171.572C526.479 172.292 526.523 172.896 526.611 173.384C526.707 173.872 526.895 174.264 527.175 174.56C527.463 174.856 527.879 175.004 528.423 175.004C528.959 175.004 529.367 174.856 529.647 174.56C529.935 174.264 530.123 173.872 530.211 173.384C530.307 172.896 530.355 172.292 530.355 171.572ZM536.146 172.688C536.146 172.016 536.282 171.428 536.554 170.924C536.826 170.412 537.198 170.016 537.67 169.736C538.15 169.456 538.686 169.316 539.278 169.316C539.79 169.316 540.266 169.436 540.706 169.676C541.146 169.908 541.482 170.216 541.714 170.6V167.12H542.818V176H541.714V174.764C541.498 175.156 541.178 175.48 540.754 175.736C540.33 175.984 539.834 176.108 539.266 176.108C538.682 176.108 538.15 175.964 537.67 175.676C537.198 175.388 536.826 174.984 536.554 174.464C536.282 173.944 536.146 173.352 536.146 172.688ZM541.714 172.7C541.714 172.204 541.614 171.772 541.414 171.404C541.214 171.036 540.942 170.756 540.598 170.564C540.262 170.364 539.89 170.264 539.482 170.264C539.074 170.264 538.702 170.36 538.366 170.552C538.03 170.744 537.762 171.024 537.562 171.392C537.362 171.76 537.262 172.192 537.262 172.688C537.262 173.192 537.362 173.632 537.562 174.008C537.762 174.376 538.03 174.66 538.366 174.86C538.702 175.052 539.074 175.148 539.482 175.148C539.89 175.148 540.262 175.052 540.598 174.86C540.942 174.66 541.214 174.376 541.414 174.008C541.614 173.632 541.714 173.196 541.714 172.7ZM545.875 170.648C546.099 170.256 546.427 169.936 546.859 169.688C547.291 169.44 547.783 169.316 548.335 169.316C548.927 169.316 549.459 169.456 549.931 169.736C550.403 170.016 550.775 170.412 551.047 170.924C551.319 171.428 551.455 172.016 551.455 172.688C551.455 173.352 551.319 173.944 551.047 174.464C550.775 174.984 550.399 175.388 549.919 175.676C549.447 175.964 548.919 176.108 548.335 176.108C547.767 176.108 547.267 175.984 546.835 175.736C546.411 175.488 546.091 175.172 545.875 174.788V176H544.783V167.12H545.875V170.648ZM550.339 172.688C550.339 172.192 550.239 171.76 550.039 171.392C549.839 171.024 549.567 170.744 549.223 170.552C548.887 170.36 548.515 170.264 548.107 170.264C547.707 170.264 547.335 170.364 546.991 170.564C546.655 170.756 546.383 171.04 546.175 171.416C545.975 171.784 545.875 172.212 545.875 172.7C545.875 173.196 545.975 173.632 546.175 174.008C546.383 174.376 546.655 174.66 546.991 174.86C547.335 175.052 547.707 175.148 548.107 175.148C548.515 175.148 548.887 175.052 549.223 174.86C549.567 174.66 549.839 174.376 550.039 174.008C550.239 173.632 550.339 173.192 550.339 172.688Z" fill="#4C5862"/>
<path d="M517.456 129.32V128.324H519.712V137H518.608V129.32H517.456ZM521.708 132.572C521.708 131.196 521.932 130.124 522.38 129.356C522.828 128.58 523.612 128.192 524.732 128.192C525.844 128.192 526.624 128.58 527.072 129.356C527.52 130.124 527.744 131.196 527.744 132.572C527.744 133.972 527.52 135.06 527.072 135.836C526.624 136.612 525.844 137 524.732 137C523.612 137 522.828 136.612 522.38 135.836C521.932 135.06 521.708 133.972 521.708 132.572ZM526.664 132.572C526.664 131.876 526.616 131.288 526.52 130.808C526.432 130.32 526.244 129.928 525.956 129.632C525.676 129.336 525.268 129.188 524.732 129.188C524.188 129.188 523.772 129.336 523.484 129.632C523.204 129.928 523.016 130.32 522.92 130.808C522.832 131.288 522.788 131.876 522.788 132.572C522.788 133.292 522.832 133.896 522.92 134.384C523.016 134.872 523.204 135.264 523.484 135.56C523.772 135.856 524.188 136.004 524.732 136.004C525.268 136.004 525.676 135.856 525.956 135.56C526.244 135.264 526.432 134.872 526.52 134.384C526.616 133.896 526.664 133.292 526.664 132.572ZM529.363 132.572C529.363 131.196 529.587 130.124 530.035 129.356C530.483 128.58 531.267 128.192 532.387 128.192C533.499 128.192 534.279 128.58 534.727 129.356C535.175 130.124 535.399 131.196 535.399 132.572C535.399 133.972 535.175 135.06 534.727 135.836C534.279 136.612 533.499 137 532.387 137C531.267 137 530.483 136.612 530.035 135.836C529.587 135.06 529.363 133.972 529.363 132.572ZM534.319 132.572C534.319 131.876 534.271 131.288 534.175 130.808C534.087 130.32 533.899 129.928 533.611 129.632C533.331 129.336 532.923 129.188 532.387 129.188C531.843 129.188 531.427 129.336 531.139 129.632C530.859 129.928 530.671 130.32 530.575 130.808C530.487 131.288 530.443 131.876 530.443 132.572C530.443 133.292 530.487 133.896 530.575 134.384C530.671 134.872 530.859 135.264 531.139 135.56C531.427 135.856 531.843 136.004 532.387 136.004C532.923 136.004 533.331 135.856 533.611 135.56C533.899 135.264 534.087 134.872 534.175 134.384C534.271 133.896 534.319 133.292 534.319 132.572ZM540.109 133.688C540.109 133.016 540.245 132.428 540.517 131.924C540.789 131.412 541.161 131.016 541.633 130.736C542.113 130.456 542.649 130.316 543.241 130.316C543.753 130.316 544.229 130.436 544.669 130.676C545.109 130.908 545.445 131.216 545.677 131.6V128.12H546.781V137H545.677V135.764C545.461 136.156 545.141 136.48 544.717 136.736C544.293 136.984 543.797 137.108 543.229 137.108C542.645 137.108 542.113 136.964 541.633 136.676C541.161 136.388 540.789 135.984 540.517 135.464C540.245 134.944 540.109 134.352 540.109 133.688ZM545.677 133.7C545.677 133.204 545.577 132.772 545.377 132.404C545.177 132.036 544.905 131.756 544.561 131.564C544.225 131.364 543.853 131.264 543.445 131.264C543.037 131.264 542.665 131.36 542.329 131.552C541.993 131.744 541.725 132.024 541.525 132.392C541.325 132.76 541.225 133.192 541.225 133.688C541.225 134.192 541.325 134.632 541.525 135.008C541.725 135.376 541.993 135.66 542.329 135.86C542.665 136.052 543.037 136.148 543.445 136.148C543.853 136.148 544.225 136.052 544.561 135.86C544.905 135.66 545.177 135.376 545.377 135.008C545.577 134.632 545.677 134.196 545.677 133.7ZM549.839 131.648C550.063 131.256 550.391 130.936 550.823 130.688C551.255 130.44 551.747 130.316 552.299 130.316C552.891 130.316 553.423 130.456 553.895 130.736C554.367 131.016 554.739 131.412 555.011 131.924C555.283 132.428 555.419 133.016 555.419 133.688C555.419 134.352 555.283 134.944 555.011 135.464C554.739 135.984 554.363 136.388 553.883 136.676C553.411 136.964 552.883 137.108 552.299 137.108C551.731 137.108 551.231 136.984 550.799 136.736C550.375 136.488 550.055 136.172 549.839 135.788V137H548.747V128.12H549.839V131.648ZM554.303 133.688C554.303 133.192 554.203 132.76 554.003 132.392C553.803 132.024 553.531 131.744 553.187 131.552C552.851 131.36 552.479 131.264 552.071 131.264C551.671 131.264 551.299 131.364 550.955 131.564C550.619 131.756 550.347 132.04 550.139 132.416C549.939 132.784 549.839 133.212 549.839 133.7C549.839 134.196 549.939 134.632 550.139 135.008C550.347 135.376 550.619 135.66 550.955 135.86C551.299 136.052 551.671 136.148 552.071 136.148C552.479 136.148 552.851 136.052 553.187 135.86C553.531 135.66 553.803 135.376 554.003 135.008C554.203 134.632 554.303 134.192 554.303 133.688Z" fill="#4C5862"/>
<path d="M517.456 90.3649V89.3689H519.712V98.0449H518.608V90.3649H517.456ZM527.24 90.3169H523.028V93.0529C523.212 92.7969 523.484 92.5889 523.844 92.4289C524.204 92.2609 524.592 92.1769 525.008 92.1769C525.672 92.1769 526.212 92.3169 526.628 92.5969C527.044 92.8689 527.34 93.2249 527.516 93.6649C527.7 94.0969 527.792 94.5569 527.792 95.0449C527.792 95.6209 527.684 96.1369 527.468 96.5929C527.252 97.0489 526.92 97.4089 526.472 97.6729C526.032 97.9369 525.484 98.0689 524.828 98.0689C523.988 98.0689 523.308 97.8529 522.788 97.4209C522.268 96.9889 521.952 96.4129 521.84 95.6929H522.908C523.012 96.1489 523.232 96.5049 523.568 96.7609C523.904 97.0169 524.328 97.1449 524.84 97.1449C525.472 97.1449 525.948 96.9569 526.268 96.5809C526.588 96.1969 526.748 95.6929 526.748 95.0689C526.748 94.4449 526.588 93.9649 526.268 93.6289C525.948 93.2849 525.476 93.1129 524.852 93.1129C524.428 93.1129 524.056 93.2169 523.736 93.4249C523.424 93.6249 523.196 93.9009 523.052 94.2529H522.02V89.3569H527.24V90.3169ZM529.363 93.6169C529.363 92.2409 529.587 91.1689 530.035 90.4009C530.483 89.6249 531.267 89.2369 532.387 89.2369C533.499 89.2369 534.279 89.6249 534.727 90.4009C535.175 91.1689 535.399 92.2409 535.399 93.6169C535.399 95.0169 535.175 96.1049 534.727 96.8809C534.279 97.6569 533.499 98.0449 532.387 98.0449C531.267 98.0449 530.483 97.6569 530.035 96.8809C529.587 96.1049 529.363 95.0169 529.363 93.6169ZM534.319 93.6169C534.319 92.9209 534.271 92.3329 534.175 91.8529C534.087 91.3649 533.899 90.9729 533.611 90.6769C533.331 90.3809 532.923 90.2329 532.387 90.2329C531.843 90.2329 531.427 90.3809 531.139 90.6769C530.859 90.9729 530.671 91.3649 530.575 91.8529C530.487 92.3329 530.443 92.9209 530.443 93.6169C530.443 94.3369 530.487 94.9409 530.575 95.4289C530.671 95.9169 530.859 96.3089 531.139 96.6049C531.427 96.9009 531.843 97.0489 532.387 97.0489C532.923 97.0489 533.331 96.9009 533.611 96.6049C533.899 96.3089 534.087 95.9169 534.175 95.4289C534.271 94.9409 534.319 94.3369 534.319 93.6169ZM540.109 94.7329C540.109 94.0609 540.245 93.4729 540.517 92.9689C540.789 92.4569 541.161 92.0609 541.633 91.7809C542.113 91.5009 542.649 91.3609 543.241 91.3609C543.753 91.3609 544.229 91.4809 544.669 91.7209C545.109 91.9529 545.445 92.2609 545.677 92.6449V89.1649H546.781V98.0449H545.677V96.8089C545.461 97.2009 545.141 97.5249 544.717 97.7809C544.293 98.0289 543.797 98.1529 543.229 98.1529C542.645 98.1529 542.113 98.0089 541.633 97.7209C541.161 97.4329 540.789 97.0289 540.517 96.5089C540.245 95.9889 540.109 95.3969 540.109 94.7329ZM545.677 94.7449C545.677 94.2489 545.577 93.8169 545.377 93.4489C545.177 93.0809 544.905 92.8009 544.561 92.6089C544.225 92.4089 543.853 92.3089 543.445 92.3089C543.037 92.3089 542.665 92.4049 542.329 92.5969C541.993 92.7889 541.725 93.0689 541.525 93.4369C541.325 93.8049 541.225 94.2369 541.225 94.7329C541.225 95.2369 541.325 95.6769 541.525 96.0529C541.725 96.4209 541.993 96.7049 542.329 96.9049C542.665 97.0969 543.037 97.1929 543.445 97.1929C543.853 97.1929 544.225 97.0969 544.561 96.9049C544.905 96.7049 545.177 96.4209 545.377 96.0529C545.577 95.6769 545.677 95.2409 545.677 94.7449ZM549.839 92.6929C550.063 92.3009 550.391 91.9809 550.823 91.7329C551.255 91.4849 551.747 91.3609 552.299 91.3609C552.891 91.3609 553.423 91.5009 553.895 91.7809C554.367 92.0609 554.739 92.4569 555.011 92.9689C555.283 93.4729 555.419 94.0609 555.419 94.7329C555.419 95.3969 555.283 95.9889 555.011 96.5089C554.739 97.0289 554.363 97.4329 553.883 97.7209C553.411 98.0089 552.883 98.1529 552.299 98.1529C551.731 98.1529 551.231 98.0289 550.799 97.7809C550.375 97.5329 550.055 97.2169 549.839 96.8329V98.0449H548.747V89.1649H549.839V92.6929ZM554.303 94.7329C554.303 94.2369 554.203 93.8049 554.003 93.4369C553.803 93.0689 553.531 92.7889 553.187 92.5969C552.851 92.4049 552.479 92.3089 552.071 92.3089C551.671 92.3089 551.299 92.4089 550.955 92.6089C550.619 92.8009 550.347 93.0849 550.139 93.4609C549.939 93.8289 549.839 94.2569 549.839 94.7449C549.839 95.2409 549.939 95.6769 550.139 96.0529C550.347 96.4209 550.619 96.7049 550.955 96.9049C551.299 97.0969 551.671 97.1929 552.071 97.1929C552.479 97.1929 552.851 97.0969 553.187 96.9049C553.531 96.7049 553.803 96.4209 554.003 96.0529C554.203 95.6769 554.303 95.2369 554.303 94.7329Z" fill="#4C5862"/>
<path d="M517.612 58.124C518.628 57.308 519.424 56.64 520 56.12C520.576 55.592 521.06 55.044 521.452 54.476C521.852 53.9 522.052 53.336 522.052 52.784C522.052 52.264 521.924 51.856 521.668 51.56C521.42 51.256 521.016 51.104 520.456 51.104C519.912 51.104 519.488 51.276 519.184 51.62C518.888 51.956 518.728 52.408 518.704 52.976H517.648C517.68 52.08 517.952 51.388 518.464 50.9C518.976 50.412 519.636 50.168 520.444 50.168C521.268 50.168 521.92 50.396 522.4 50.852C522.888 51.308 523.132 51.936 523.132 52.736C523.132 53.4 522.932 54.048 522.532 54.68C522.14 55.304 521.692 55.856 521.188 56.336C520.684 56.808 520.04 57.36 519.256 57.992H523.384V58.904H517.612V58.124ZM524.766 54.572C524.766 53.196 524.99 52.124 525.438 51.356C525.886 50.58 526.67 50.192 527.79 50.192C528.902 50.192 529.682 50.58 530.13 51.356C530.578 52.124 530.802 53.196 530.802 54.572C530.802 55.972 530.578 57.06 530.13 57.836C529.682 58.612 528.902 59 527.79 59C526.67 59 525.886 58.612 525.438 57.836C524.99 57.06 524.766 55.972 524.766 54.572ZM529.722 54.572C529.722 53.876 529.674 53.288 529.578 52.808C529.49 52.32 529.302 51.928 529.014 51.632C528.734 51.336 528.326 51.188 527.79 51.188C527.246 51.188 526.83 51.336 526.542 51.632C526.262 51.928 526.074 52.32 525.978 52.808C525.89 53.288 525.846 53.876 525.846 54.572C525.846 55.292 525.89 55.896 525.978 56.384C526.074 56.872 526.262 57.264 526.542 57.56C526.83 57.856 527.246 58.004 527.79 58.004C528.326 58.004 528.734 57.856 529.014 57.56C529.302 57.264 529.49 56.872 529.578 56.384C529.674 55.896 529.722 55.292 529.722 54.572ZM532.421 54.572C532.421 53.196 532.645 52.124 533.093 51.356C533.541 50.58 534.325 50.192 535.445 50.192C536.557 50.192 537.337 50.58 537.785 51.356C538.233 52.124 538.457 53.196 538.457 54.572C538.457 55.972 538.233 57.06 537.785 57.836C537.337 58.612 536.557 59 535.445 59C534.325 59 533.541 58.612 533.093 57.836C532.645 57.06 532.421 55.972 532.421 54.572ZM537.378 54.572C537.378 53.876 537.33 53.288 537.234 52.808C537.146 52.32 536.957 51.928 536.669 51.632C536.389 51.336 535.981 51.188 535.445 51.188C534.901 51.188 534.485 51.336 534.197 51.632C533.917 51.928 533.729 52.32 533.633 52.808C533.545 53.288 533.501 53.876 533.501 54.572C533.501 55.292 533.545 55.896 533.633 56.384C533.729 56.872 533.917 57.264 534.197 57.56C534.485 57.856 534.901 58.004 535.445 58.004C535.981 58.004 536.389 57.856 536.669 57.56C536.957 57.264 537.146 56.872 537.234 56.384C537.33 55.896 537.378 55.292 537.378 54.572ZM543.168 55.688C543.168 55.016 543.304 54.428 543.576 53.924C543.848 53.412 544.22 53.016 544.692 52.736C545.172 52.456 545.708 52.316 546.3 52.316C546.812 52.316 547.288 52.436 547.728 52.676C548.168 52.908 548.504 53.216 548.736 53.6V50.12H549.84V59H548.736V57.764C548.52 58.156 548.2 58.48 547.776 58.736C547.352 58.984 546.856 59.108 546.288 59.108C545.704 59.108 545.172 58.964 544.692 58.676C544.22 58.388 543.848 57.984 543.576 57.464C543.304 56.944 543.168 56.352 543.168 55.688ZM548.736 55.7C548.736 55.204 548.636 54.772 548.436 54.404C548.236 54.036 547.964 53.756 547.62 53.564C547.284 53.364 546.912 53.264 546.504 53.264C546.096 53.264 545.724 53.36 545.388 53.552C545.052 53.744 544.784 54.024 544.584 54.392C544.384 54.76 544.284 55.192 544.284 55.688C544.284 56.192 544.384 56.632 544.584 57.008C544.784 57.376 545.052 57.66 545.388 57.86C545.724 58.052 546.096 58.148 546.504 58.148C546.912 58.148 547.284 58.052 547.62 57.86C547.964 57.66 548.236 57.376 548.436 57.008C548.636 56.632 548.736 56.196 548.736 55.7ZM552.897 53.648C553.121 53.256 553.449 52.936 553.881 52.688C554.313 52.44 554.805 52.316 555.357 52.316C555.949 52.316 556.481 52.456 556.953 52.736C557.425 53.016 557.797 53.412 558.069 53.924C558.341 54.428 558.477 55.016 558.477 55.688C558.477 56.352 558.341 56.944 558.069 57.464C557.797 57.984 557.421 58.388 556.941 58.676C556.469 58.964 555.941 59.108 555.357 59.108C554.789 59.108 554.289 58.984 553.857 58.736C553.433 58.488 553.113 58.172 552.897 57.788V59H551.805V50.12H552.897V53.648ZM557.361 55.688C557.361 55.192 557.261 54.76 557.061 54.392C556.861 54.024 556.589 53.744 556.245 53.552C555.909 53.36 555.537 53.264 555.129 53.264C554.729 53.264 554.357 53.364 554.013 53.564C553.677 53.756 553.405 54.04 553.197 54.416C552.997 54.784 552.897 55.212 552.897 55.7C552.897 56.196 552.997 56.632 553.197 57.008C553.405 57.376 553.677 57.66 554.013 57.86C554.357 58.052 554.729 58.148 555.129 58.148C555.537 58.148 555.909 58.052 556.245 57.86C556.589 57.66 556.861 57.376 557.061 57.008C557.261 56.632 557.361 56.192 557.361 55.688Z" fill="#4C5862"/>
<path d="M238.456 231.32V230.324H240.712V239H239.608V231.32H238.456ZM242.708 234.572C242.708 233.196 242.932 232.124 243.38 231.356C243.828 230.58 244.612 230.192 245.732 230.192C246.844 230.192 247.624 230.58 248.072 231.356C248.52 232.124 248.744 233.196 248.744 234.572C248.744 235.972 248.52 237.06 248.072 237.836C247.624 238.612 246.844 239 245.732 239C244.612 239 243.828 238.612 243.38 237.836C242.932 237.06 242.708 235.972 242.708 234.572ZM247.664 234.572C247.664 233.876 247.616 233.288 247.52 232.808C247.432 232.32 247.244 231.928 246.956 231.632C246.676 231.336 246.268 231.188 245.732 231.188C245.188 231.188 244.772 231.336 244.484 231.632C244.204 231.928 244.016 232.32 243.92 232.808C243.832 233.288 243.788 233.876 243.788 234.572C243.788 235.292 243.832 235.896 243.92 236.384C244.016 236.872 244.204 237.264 244.484 237.56C244.772 237.856 245.188 238.004 245.732 238.004C246.268 238.004 246.676 237.856 246.956 237.56C247.244 237.264 247.432 236.872 247.52 236.384C247.616 235.896 247.664 235.292 247.664 234.572ZM250.135 235.688C250.135 235.016 250.271 234.428 250.543 233.924C250.815 233.412 251.187 233.016 251.659 232.736C252.139 232.456 252.671 232.316 253.255 232.316C253.831 232.316 254.331 232.44 254.755 232.688C255.179 232.936 255.495 233.248 255.703 233.624V232.424H256.807V239H255.703V237.776C255.487 238.16 255.163 238.48 254.731 238.736C254.307 238.984 253.811 239.108 253.243 239.108C252.659 239.108 252.131 238.964 251.659 238.676C251.187 238.388 250.815 237.984 250.543 237.464C250.271 236.944 250.135 236.352 250.135 235.688ZM255.703 235.7C255.703 235.204 255.603 234.772 255.403 234.404C255.203 234.036 254.931 233.756 254.587 233.564C254.251 233.364 253.879 233.264 253.471 233.264C253.063 233.264 252.691 233.36 252.355 233.552C252.019 233.744 251.751 234.024 251.551 234.392C251.351 234.76 251.251 235.192 251.251 235.688C251.251 236.192 251.351 236.632 251.551 237.008C251.751 237.376 252.019 237.66 252.355 237.86C252.691 238.052 253.063 238.148 253.471 238.148C253.879 238.148 254.251 238.052 254.587 237.86C254.931 237.66 255.203 237.376 255.403 237.008C255.603 236.632 255.703 236.196 255.703 235.7ZM266.68 232.304C267.192 232.304 267.648 232.412 268.048 232.628C268.448 232.836 268.764 233.152 268.996 233.576C269.228 234 269.344 234.516 269.344 235.124V239H268.264V235.28C268.264 234.624 268.1 234.124 267.772 233.78C267.452 233.428 267.016 233.252 266.464 233.252C265.896 233.252 265.444 233.436 265.108 233.804C264.772 234.164 264.604 234.688 264.604 235.376V239H263.524V235.28C263.524 234.624 263.36 234.124 263.032 233.78C262.712 233.428 262.276 233.252 261.724 233.252C261.156 233.252 260.704 233.436 260.368 233.804C260.032 234.164 259.864 234.688 259.864 235.376V239H258.772V232.424H259.864V233.372C260.08 233.028 260.368 232.764 260.728 232.58C261.096 232.396 261.5 232.304 261.94 232.304C262.492 232.304 262.98 232.428 263.404 232.676C263.828 232.924 264.144 233.288 264.352 233.768C264.536 233.304 264.84 232.944 265.264 232.688C265.688 232.432 266.16 232.304 266.68 232.304Z" fill="#4C5862"/>
<path d="M321.456 231.32V230.324H323.712V239H322.608V231.32H321.456ZM325.42 231.32V230.324H327.676V239H326.572V231.32H325.42ZM329.443 235.688C329.443 235.016 329.579 234.428 329.851 233.924C330.123 233.412 330.495 233.016 330.967 232.736C331.447 232.456 331.979 232.316 332.563 232.316C333.14 232.316 333.64 232.44 334.064 232.688C334.488 232.936 334.804 233.248 335.012 233.624V232.424H336.116V239H335.012V237.776C334.796 238.16 334.472 238.48 334.04 238.736C333.616 238.984 333.12 239.108 332.551 239.108C331.967 239.108 331.439 238.964 330.967 238.676C330.495 238.388 330.123 237.984 329.851 237.464C329.579 236.944 329.443 236.352 329.443 235.688ZM335.012 235.7C335.012 235.204 334.912 234.772 334.712 234.404C334.512 234.036 334.24 233.756 333.896 233.564C333.559 233.364 333.187 233.264 332.779 233.264C332.371 233.264 331.999 233.36 331.663 233.552C331.327 233.744 331.059 234.024 330.859 234.392C330.659 234.76 330.559 235.192 330.559 235.688C330.559 236.192 330.659 236.632 330.859 237.008C331.059 237.376 331.327 237.66 331.663 237.86C331.999 238.052 332.371 238.148 332.779 238.148C333.187 238.148 333.559 238.052 333.896 237.86C334.24 237.66 334.512 237.376 334.712 237.008C334.912 236.632 335.012 236.196 335.012 235.7ZM345.989 232.304C346.501 232.304 346.957 232.412 347.357 232.628C347.757 232.836 348.073 233.152 348.305 233.576C348.537 234 348.653 234.516 348.653 235.124V239H347.573V235.28C347.573 234.624 347.409 234.124 347.081 233.78C346.761 233.428 346.325 233.252 345.773 233.252C345.205 233.252 344.753 233.436 344.417 233.804C344.081 234.164 343.913 234.688 343.913 235.376V239H342.833V235.28C342.833 234.624 342.669 234.124 342.341 233.78C342.021 233.428 341.585 233.252 341.033 233.252C340.465 233.252 340.013 233.436 339.677 233.804C339.341 234.164 339.173 234.688 339.173 235.376V239H338.081V232.424H339.173V233.372C339.389 233.028 339.677 232.764 340.037 232.58C340.405 232.396 340.809 232.304 341.249 232.304C341.801 232.304 342.289 232.428 342.713 232.676C343.137 232.924 343.453 233.288 343.661 233.768C343.845 233.304 344.149 232.944 344.573 232.688C344.997 232.432 345.469 232.304 345.989 232.304Z" fill="#4C5862"/>
<path d="M404.456 231.32V230.324H406.712V239H405.608V231.32H404.456ZM408.576 238.124C409.592 237.308 410.388 236.64 410.964 236.12C411.54 235.592 412.024 235.044 412.416 234.476C412.816 233.9 413.016 233.336 413.016 232.784C413.016 232.264 412.888 231.856 412.632 231.56C412.384 231.256 411.98 231.104 411.42 231.104C410.876 231.104 410.452 231.276 410.148 231.62C409.852 231.956 409.692 232.408 409.668 232.976H408.612C408.644 232.08 408.916 231.388 409.428 230.9C409.94 230.412 410.6 230.168 411.408 230.168C412.232 230.168 412.884 230.396 413.364 230.852C413.852 231.308 414.096 231.936 414.096 232.736C414.096 233.4 413.896 234.048 413.496 234.68C413.104 235.304 412.656 235.856 412.152 236.336C411.648 236.808 411.004 237.36 410.22 237.992H414.348V238.904H408.576V238.124ZM417.002 233.636C417.218 233.26 417.538 232.948 417.962 232.7C418.394 232.444 418.894 232.316 419.462 232.316C420.046 232.316 420.574 232.456 421.046 232.736C421.526 233.016 421.902 233.412 422.174 233.924C422.446 234.428 422.582 235.016 422.582 235.688C422.582 236.352 422.446 236.944 422.174 237.464C421.902 237.984 421.526 238.388 421.046 238.676C420.574 238.964 420.046 239.108 419.462 239.108C418.902 239.108 418.406 238.984 417.974 238.736C417.55 238.48 417.226 238.164 417.002 237.788V242.12H415.91V232.424H417.002V233.636ZM421.466 235.688C421.466 235.192 421.366 234.76 421.166 234.392C420.966 234.024 420.694 233.744 420.35 233.552C420.014 233.36 419.642 233.264 419.234 233.264C418.834 233.264 418.462 233.364 418.118 233.564C417.782 233.756 417.51 234.04 417.302 234.416C417.102 234.784 417.002 235.212 417.002 235.7C417.002 236.196 417.102 236.632 417.302 237.008C417.51 237.376 417.782 237.66 418.118 237.86C418.462 238.052 418.834 238.148 419.234 238.148C419.642 238.148 420.014 238.052 420.35 237.86C420.694 237.66 420.966 237.376 421.166 237.008C421.366 236.632 421.466 236.192 421.466 235.688ZM432.047 232.304C432.559 232.304 433.015 232.412 433.415 232.628C433.815 232.836 434.131 233.152 434.363 233.576C434.595 234 434.711 234.516 434.711 235.124V239H433.631V235.28C433.631 234.624 433.467 234.124 433.139 233.78C432.819 233.428 432.383 233.252 431.831 233.252C431.263 233.252 430.811 233.436 430.475 233.804C430.139 234.164 429.971 234.688 429.971 235.376V239H428.891V235.28C428.891 234.624 428.727 234.124 428.399 233.78C428.079 233.428 427.643 233.252 427.091 233.252C426.523 233.252 426.071 233.436 425.735 233.804C425.399 234.164 425.231 234.688 425.231 235.376V239H424.139V232.424H425.231V233.372C425.447 233.028 425.735 232.764 426.095 232.58C426.463 232.396 426.867 232.304 427.307 232.304C427.859 232.304 428.347 232.428 428.771 232.676C429.195 232.924 429.511 233.288 429.719 233.768C429.903 233.304 430.207 232.944 430.631 232.688C431.055 232.432 431.527 232.304 432.047 232.304Z" fill="#4C5862"/>
<path d="M157.148 235.672C157.228 236.128 157.412 236.48 157.7 236.728C157.996 236.976 158.392 237.1 158.888 237.1C159.552 237.1 160.04 236.84 160.352 236.32C160.672 235.8 160.824 234.924 160.808 233.692C160.64 234.052 160.36 234.336 159.968 234.544C159.576 234.744 159.14 234.844 158.66 234.844C158.124 234.844 157.644 234.736 157.22 234.52C156.804 234.296 156.476 233.972 156.236 233.548C155.996 233.124 155.876 232.612 155.876 232.012C155.876 231.156 156.124 230.468 156.62 229.948C157.116 229.42 157.82 229.156 158.732 229.156C159.852 229.156 160.636 229.52 161.084 230.248C161.54 230.976 161.768 232.06 161.768 233.5C161.768 234.508 161.676 235.34 161.492 235.996C161.316 236.652 161.012 237.152 160.58 237.496C160.156 237.84 159.572 238.012 158.828 238.012C158.012 238.012 157.376 237.792 156.92 237.352C156.464 236.912 156.204 236.352 156.14 235.672H157.148ZM158.84 233.92C159.376 233.92 159.816 233.756 160.16 233.428C160.504 233.092 160.676 232.64 160.676 232.072C160.676 231.472 160.508 230.988 160.172 230.62C159.836 230.252 159.364 230.068 158.756 230.068C158.196 230.068 157.748 230.244 157.412 230.596C157.084 230.948 156.92 231.412 156.92 231.988C156.92 232.572 157.084 233.04 157.412 233.392C157.74 233.744 158.216 233.92 158.84 233.92ZM163.195 234.688C163.195 234.016 163.331 233.428 163.603 232.924C163.875 232.412 164.247 232.016 164.719 231.736C165.199 231.456 165.731 231.316 166.315 231.316C166.891 231.316 167.391 231.44 167.815 231.688C168.239 231.936 168.555 232.248 168.763 232.624V231.424H169.867V238H168.763V236.776C168.547 237.16 168.223 237.48 167.791 237.736C167.367 237.984 166.871 238.108 166.303 238.108C165.719 238.108 165.191 237.964 164.719 237.676C164.247 237.388 163.875 236.984 163.603 236.464C163.331 235.944 163.195 235.352 163.195 234.688ZM168.763 234.7C168.763 234.204 168.663 233.772 168.463 233.404C168.263 233.036 167.991 232.756 167.647 232.564C167.311 232.364 166.939 232.264 166.531 232.264C166.123 232.264 165.751 232.36 165.415 232.552C165.079 232.744 164.811 233.024 164.611 233.392C164.411 233.76 164.311 234.192 164.311 234.688C164.311 235.192 164.411 235.632 164.611 236.008C164.811 236.376 165.079 236.66 165.415 236.86C165.751 237.052 166.123 237.148 166.531 237.148C166.939 237.148 167.311 237.052 167.647 236.86C167.991 236.66 168.263 236.376 168.463 236.008C168.663 235.632 168.763 235.196 168.763 234.7ZM179.74 231.304C180.252 231.304 180.708 231.412 181.108 231.628C181.508 231.836 181.824 232.152 182.056 232.576C182.288 233 182.404 233.516 182.404 234.124V238H181.324V234.28C181.324 233.624 181.16 233.124 180.832 232.78C180.512 232.428 180.076 232.252 179.524 232.252C178.956 232.252 178.504 232.436 178.168 232.804C177.832 233.164 177.664 233.688 177.664 234.376V238H176.584V234.28C176.584 233.624 176.42 233.124 176.092 232.78C175.772 232.428 175.336 232.252 174.784 232.252C174.216 232.252 173.764 232.436 173.428 232.804C173.092 233.164 172.924 233.688 172.924 234.376V238H171.832V231.424H172.924V232.372C173.14 232.028 173.428 231.764 173.788 231.58C174.156 231.396 174.56 231.304 175 231.304C175.552 231.304 176.04 231.428 176.464 231.676C176.888 231.924 177.204 232.288 177.412 232.768C177.596 232.304 177.9 231.944 178.324 231.688C178.748 231.432 179.22 231.304 179.74 231.304Z" fill="#4C5862"/>
<line x1="44.3325" y1="210.554" x2="501" y2="210.554" stroke="#D3D8DD" stroke-miterlimit="16" stroke-dasharray="8 8"/>
<line x1="44.3325" y1="171.509" x2="501" y2="171.509" stroke="#D3D8DD" stroke-miterlimit="16" stroke-dasharray="8 8"/>
<line x1="44.3325" y1="132.464" x2="501" y2="132.464" stroke="#D3D8DD" stroke-miterlimit="16" stroke-dasharray="8 8"/>
<line x1="44.3325" y1="93.4189" x2="501" y2="93.4189" stroke="#D3D8DD" stroke-miterlimit="16" stroke-dasharray="8 8"/>
<line x1="44.3325" y1="54.374" x2="501" y2="54.374" stroke="#D3D8DD" stroke-miterlimit="16" stroke-dasharray="8 8"/>
</svg>
