<svg width="58" height="67" viewBox="0 0 58 67" fill="none" xmlns="http://www.w3.org/2000/svg">
<path d="M3 15.2002H8.77778H55" stroke="#49B8FF" stroke-width="5" stroke-linecap="round" stroke-linejoin="round"/>
<path d="M17.4444 15.2V9.1C17.4444 7.48218 18.0531 5.93062 19.1367 4.78665C20.2202 3.64268 21.6898 3 23.2222 3H34.7777C36.3101 3 37.7797 3.64268 38.8632 4.78665C39.9468 5.93062 40.5555 7.48218 40.5555 9.1V15.2M49.2222 15.2V57.9C49.2222 59.5178 48.6134 61.0694 47.5299 62.2133C46.4463 63.3573 44.9767 64 43.4444 64H14.5555C13.0231 64 11.5535 63.3573 10.47 62.2133C9.38644 61.0694 8.77771 59.5178 8.77771 57.9V15.2H49.2222Z" stroke="#49B8FF" stroke-width="5" stroke-linecap="round" stroke-linejoin="round"/>
<path d="M23.2223 30.4502V48.7502" stroke="#49B8FF" stroke-width="5" stroke-linecap="round" stroke-linejoin="round"/>
<path d="M34.7777 30.4502V48.7502" stroke="#49B8FF" stroke-width="5" stroke-linecap="round" stroke-linejoin="round"/>
</svg>
